<svg id="visual" viewBox="0 0 900 600" width="900" height="600" xmlns="http://www.w3.org/2000/svg" xmlns:xlink="http://www.w3.org/1999/xlink" version="1.1"><rect x="0" y="0" width="900" height="600" fill="#376de3"></rect><defs><linearGradient id="grad1_0" x1="33.3%" y1="0%" x2="100%" y2="100%"><stop offset="20%" stop-color="#81a6f4" stop-opacity="1"></stop><stop offset="80%" stop-color="#81a6f4" stop-opacity="1"></stop></linearGradient></defs><defs><linearGradient id="grad1_1" x1="33.3%" y1="0%" x2="100%" y2="100%"><stop offset="20%" stop-color="#81a6f4" stop-opacity="1"></stop><stop offset="80%" stop-color="#5d8aec" stop-opacity="1"></stop></linearGradient></defs><defs><linearGradient id="grad1_2" x1="33.3%" y1="0%" x2="100%" y2="100%"><stop offset="20%" stop-color="#376de3" stop-opacity="1"></stop><stop offset="80%" stop-color="#5d8aec" stop-opacity="1"></stop></linearGradient></defs><defs><linearGradient id="grad2_0" x1="0%" y1="0%" x2="66.7%" y2="100%"><stop offset="20%" stop-color="#81a6f4" stop-opacity="1"></stop><stop offset="80%" stop-color="#81a6f4" stop-opacity="1"></stop></linearGradient></defs><defs><linearGradient id="grad2_1" x1="0%" y1="0%" x2="66.7%" y2="100%"><stop offset="20%" stop-color="#5d8aec" stop-opacity="1"></stop><stop offset="80%" stop-color="#81a6f4" stop-opacity="1"></stop></linearGradient></defs><defs><linearGradient id="grad2_2" x1="0%" y1="0%" x2="66.7%" y2="100%"><stop offset="20%" stop-color="#5d8aec" stop-opacity="1"></stop><stop offset="80%" stop-color="#376de3" stop-opacity="1"></stop></linearGradient></defs><g transform="translate(900, 0)"><path d="M0 378.6C-60.4 359.3 -120.9 340 -179.5 310.9C-238.1 281.8 -295 242.8 -327.9 189.3C-360.7 135.8 -369.7 67.9 -378.6 0L0 0Z" fill="#4b7be8"></path><path d="M0 252.4C-40.3 239.5 -80.6 226.7 -119.7 207.3C-158.8 187.8 -196.7 161.8 -218.6 126.2C-240.5 90.6 -246.4 45.3 -252.4 0L0 0Z" fill="#6f98f0"></path><path d="M0 126.2C-20.1 119.8 -40.3 113.3 -59.8 103.6C-79.4 93.9 -98.3 80.9 -109.3 63.1C-120.2 45.3 -123.2 22.6 -126.2 0L0 0Z" fill="#81a6f4"></path></g><g transform="translate(0, 600)"><path d="M0 -378.6C57.2 -353.8 114.5 -329 173.5 -300.5C232.5 -272.1 293.4 -240 327.9 -189.3C362.3 -138.6 370.5 -69.3 378.6 0L0 0Z" fill="#4b7be8"></path><path d="M0 -252.4C38.2 -235.8 76.3 -219.3 115.7 -200.3C155 -181.4 195.6 -160 218.6 -126.2C241.6 -92.4 247 -46.2 252.4 0L0 0Z" fill="#6f98f0"></path><path d="M0 -126.2C19.1 -117.9 38.2 -109.7 57.8 -100.2C77.5 -90.7 97.8 -80 109.3 -63.1C120.8 -46.2 123.5 -23.1 126.2 0L0 0Z" fill="#81a6f4"></path></g></svg>