<svg id="visual" viewBox="0 0 900 600" width="900" height="600" xmlns="http://www.w3.org/2000/svg" xmlns:xlink="http://www.w3.org/1999/xlink" version="1.1"><rect x="0" y="0" width="900" height="600" fill="#f2f6f9"></rect><path d="M0 375L30 368.3C60 361.7 120 348.3 180 335.5C240 322.7 300 310.3 360 313.3C420 316.3 480 334.7 540 329.3C600 324 660 295 720 284.8C780 274.7 840 283.3 870 287.7L900 292L900 601L870 601C840 601 780 601 720 601C660 601 600 601 540 601C480 601 420 601 360 601C300 601 240 601 180 601C120 601 60 601 30 601L0 601Z" fill="#8eaef4"></path><path d="M0 341L30 343.5C60 346 120 351 180 348.2C240 345.3 300 334.7 360 335.5C420 336.3 480 348.7 540 349.5C600 350.3 660 339.7 720 343.2C780 346.7 840 364.3 870 373.2L900 382L900 601L870 601C840 601 780 601 720 601C660 601 600 601 540 601C480 601 420 601 360 601C300 601 240 601 180 601C120 601 60 601 30 601L0 601Z" fill="#7a9ef1"></path><path d="M0 454L30 452.5C60 451 120 448 180 438.7C240 429.3 300 413.7 360 403.8C420 394 480 390 540 392.7C600 395.3 660 404.7 720 409.5C780 414.3 840 414.7 870 414.8L900 415L900 601L870 601C840 601 780 601 720 601C660 601 600 601 540 601C480 601 420 601 360 601C300 601 240 601 180 601C120 601 60 601 30 601L0 601Z" fill="#658eed"></path><path d="M0 473L30 475.8C60 478.7 120 484.3 180 490.3C240 496.3 300 502.7 360 495C420 487.3 480 465.7 540 460.8C600 456 660 468 720 472.7C780 477.3 840 474.7 870 473.3L900 472L900 601L870 601C840 601 780 601 720 601C660 601 600 601 540 601C480 601 420 601 360 601C300 601 240 601 180 601C120 601 60 601 30 601L0 601Z" fill="#4f7ee8"></path><path d="M0 528L30 525.5C60 523 120 518 180 517.3C240 516.7 300 520.3 360 525C420 529.7 480 535.3 540 540.7C600 546 660 551 720 549.5C780 548 840 540 870 536L900 532L900 601L870 601C840 601 780 601 720 601C660 601 600 601 540 601C480 601 420 601 360 601C300 601 240 601 180 601C120 601 60 601 30 601L0 601Z" fill="#376de3"></path></svg>