<svg id="visual" viewBox="0 0 900 600" width="900" height="600" xmlns="http://www.w3.org/2000/svg" xmlns:xlink="http://www.w3.org/1999/xlink" version="1.1"><g stroke-width="1" stroke-linejoin="bevel"><path d="M505 311L569 279L492 160Z" fill="#5c83d6" stroke="#5c83d6"></path><path d="M569 279L598 170L492 160Z" fill="#4777de" stroke="#4777de"></path><path d="M492 160L390 284L505 311Z" fill="#5780d8" stroke="#5780d8"></path><path d="M492 160L359 226L390 284Z" fill="#5780d8" stroke="#5780d8"></path><path d="M637 107L458 89L492 160Z" fill="#376de3" stroke="#376de3"></path><path d="M492 160L367 130L359 226Z" fill="#6185d4" stroke="#6185d4"></path><path d="M569 279L654 179L598 170Z" fill="#6688d2" stroke="#6688d2"></path><path d="M598 170L637 107L492 160Z" fill="#6185d4" stroke="#6185d4"></path><path d="M263 358L409 371L390 284Z" fill="#6185d4" stroke="#6185d4"></path><path d="M390 284L409 371L505 311Z" fill="#3d70e1" stroke="#3d70e1"></path><path d="M626 439L665 390L569 279Z" fill="#6688d2" stroke="#6688d2"></path><path d="M458 89L367 130L492 160Z" fill="#5780d8" stroke="#5780d8"></path><path d="M409 371L474 411L505 311Z" fill="#6688d2" stroke="#6688d2"></path><path d="M569 279L704 344L654 179Z" fill="#3d70e1" stroke="#3d70e1"></path><path d="M654 179L637 107L598 170Z" fill="#4d7adc" stroke="#4d7adc"></path><path d="M654 179L671 86L637 107Z" fill="#527dda" stroke="#527dda"></path><path d="M613 0L472 0L458 89Z" fill="#3d70e1" stroke="#3d70e1"></path><path d="M626 439L569 279L505 311Z" fill="#5c83d6" stroke="#5c83d6"></path><path d="M654 179L772 69L671 86Z" fill="#4274e0" stroke="#4274e0"></path><path d="M665 390L704 344L569 279Z" fill="#5780d8" stroke="#5780d8"></path><path d="M262 153L273 256L359 226Z" fill="#527dda" stroke="#527dda"></path><path d="M359 226L273 256L390 284Z" fill="#5c83d6" stroke="#5c83d6"></path><path d="M474 411L626 439L505 311Z" fill="#376de3" stroke="#376de3"></path><path d="M665 390L774 360L704 344Z" fill="#3d70e1" stroke="#3d70e1"></path><path d="M613 0L458 89L637 107Z" fill="#6b8bd0" stroke="#6b8bd0"></path><path d="M458 89L364 0L367 130Z" fill="#4d7adc" stroke="#4d7adc"></path><path d="M671 86L613 0L637 107Z" fill="#3d70e1" stroke="#3d70e1"></path><path d="M287 98L262 153L367 130Z" fill="#3d70e1" stroke="#3d70e1"></path><path d="M367 130L262 153L359 226Z" fill="#5780d8" stroke="#5780d8"></path><path d="M337 0L287 98L367 130Z" fill="#6185d4" stroke="#6185d4"></path><path d="M224 256L263 358L273 256Z" fill="#5c83d6" stroke="#5c83d6"></path><path d="M273 256L263 358L390 284Z" fill="#376de3" stroke="#376de3"></path><path d="M409 371L395 495L474 411Z" fill="#6b8bd0" stroke="#6b8bd0"></path><path d="M472 0L364 0L458 89Z" fill="#5780d8" stroke="#5780d8"></path><path d="M772 69L663 0L671 86Z" fill="#6185d4" stroke="#6185d4"></path><path d="M671 86L663 0L613 0Z" fill="#4274e0" stroke="#4274e0"></path><path d="M323 478L395 495L409 371Z" fill="#5780d8" stroke="#5780d8"></path><path d="M474 411L574 532L626 439Z" fill="#527dda" stroke="#527dda"></path><path d="M262 153L224 256L273 256Z" fill="#6688d2" stroke="#6688d2"></path><path d="M364 0L337 0L367 130Z" fill="#3d70e1" stroke="#3d70e1"></path><path d="M731 532L774 360L665 390Z" fill="#6688d2" stroke="#6688d2"></path><path d="M704 344L803 235L654 179Z" fill="#527dda" stroke="#527dda"></path><path d="M774 360L803 235L704 344Z" fill="#4777de" stroke="#4777de"></path><path d="M395 495L471 537L474 411Z" fill="#4777de" stroke="#4777de"></path><path d="M626 439L731 532L665 390Z" fill="#6b8bd0" stroke="#6b8bd0"></path><path d="M471 537L574 532L474 411Z" fill="#5c83d6" stroke="#5c83d6"></path><path d="M263 358L323 478L409 371Z" fill="#4777de" stroke="#4777de"></path><path d="M423 600L464 600L471 537Z" fill="#6185d4" stroke="#6185d4"></path><path d="M803 235L772 69L654 179Z" fill="#3d70e1" stroke="#3d70e1"></path><path d="M287 98L197 143L262 153Z" fill="#6185d4" stroke="#6185d4"></path><path d="M262 153L171 182L224 256Z" fill="#6185d4" stroke="#6185d4"></path><path d="M177 0L197 143L287 98Z" fill="#4d7adc" stroke="#4d7adc"></path><path d="M774 360L839 288L803 235Z" fill="#6185d4" stroke="#6185d4"></path><path d="M803 235L900 73L772 69Z" fill="#4d7adc" stroke="#4d7adc"></path><path d="M197 143L171 182L262 153Z" fill="#5c83d6" stroke="#5c83d6"></path><path d="M224 256L191 361L263 358Z" fill="#376de3" stroke="#376de3"></path><path d="M263 358L191 361L323 478Z" fill="#6688d2" stroke="#6688d2"></path><path d="M145 300L191 361L224 256Z" fill="#376de3" stroke="#376de3"></path><path d="M171 182L145 300L224 256Z" fill="#3d70e1" stroke="#3d70e1"></path><path d="M423 600L471 537L395 495Z" fill="#527dda" stroke="#527dda"></path><path d="M471 537L464 600L574 532Z" fill="#376de3" stroke="#376de3"></path><path d="M574 532L731 532L626 439Z" fill="#5c83d6" stroke="#5c83d6"></path><path d="M900 354L900 289L839 288Z" fill="#6b8bd0" stroke="#6b8bd0"></path><path d="M597 600L731 532L574 532Z" fill="#6688d2" stroke="#6688d2"></path><path d="M307 600L395 495L323 478Z" fill="#4274e0" stroke="#4274e0"></path><path d="M307 600L423 600L395 495Z" fill="#527dda" stroke="#527dda"></path><path d="M464 600L597 600L574 532Z" fill="#4d7adc" stroke="#4d7adc"></path><path d="M900 289L900 214L839 288Z" fill="#6688d2" stroke="#6688d2"></path><path d="M839 288L900 214L803 235Z" fill="#3d70e1" stroke="#3d70e1"></path><path d="M900 354L839 288L774 360Z" fill="#6185d4" stroke="#6185d4"></path><path d="M900 73L831 0L772 69Z" fill="#6185d4" stroke="#6185d4"></path><path d="M772 69L831 0L663 0Z" fill="#6688d2" stroke="#6688d2"></path><path d="M798 600L813 493L731 532Z" fill="#527dda" stroke="#527dda"></path><path d="M731 532L813 493L774 360Z" fill="#6185d4" stroke="#6185d4"></path><path d="M73 126L76 154L171 182Z" fill="#6688d2" stroke="#6688d2"></path><path d="M171 182L76 154L145 300Z" fill="#376de3" stroke="#376de3"></path><path d="M337 0L177 0L287 98Z" fill="#4777de" stroke="#4777de"></path><path d="M145 300L135 405L191 361Z" fill="#4274e0" stroke="#4274e0"></path><path d="M191 361L135 405L323 478Z" fill="#4274e0" stroke="#4274e0"></path><path d="M900 469L900 354L774 360Z" fill="#4777de" stroke="#4777de"></path><path d="M207 600L307 600L323 478Z" fill="#6b8bd0" stroke="#6b8bd0"></path><path d="M900 214L900 73L803 235Z" fill="#4777de" stroke="#4777de"></path><path d="M597 600L737 600L731 532Z" fill="#4d7adc" stroke="#4d7adc"></path><path d="M73 126L171 182L197 143Z" fill="#5c83d6" stroke="#5c83d6"></path><path d="M145 300L0 324L135 405Z" fill="#6688d2" stroke="#6688d2"></path><path d="M177 0L73 126L197 143Z" fill="#6185d4" stroke="#6185d4"></path><path d="M900 600L900 469L813 493Z" fill="#5c83d6" stroke="#5c83d6"></path><path d="M813 493L900 469L774 360Z" fill="#6688d2" stroke="#6688d2"></path><path d="M900 73L900 0L831 0Z" fill="#4777de" stroke="#4777de"></path><path d="M177 0L107 0L73 126Z" fill="#6688d2" stroke="#6688d2"></path><path d="M135 405L155 539L323 478Z" fill="#5c83d6" stroke="#5c83d6"></path><path d="M105 498L155 539L135 405Z" fill="#376de3" stroke="#376de3"></path><path d="M737 600L798 600L731 532Z" fill="#527dda" stroke="#527dda"></path><path d="M155 539L207 600L323 478Z" fill="#3d70e1" stroke="#3d70e1"></path><path d="M0 232L145 300L76 154Z" fill="#4274e0" stroke="#4274e0"></path><path d="M0 388L105 498L135 405Z" fill="#6688d2" stroke="#6688d2"></path><path d="M155 539L91 600L207 600Z" fill="#3d70e1" stroke="#3d70e1"></path><path d="M0 109L76 154L73 126Z" fill="#5780d8" stroke="#5780d8"></path><path d="M0 109L0 232L76 154Z" fill="#5780d8" stroke="#5780d8"></path><path d="M0 232L0 324L145 300Z" fill="#6185d4" stroke="#6185d4"></path><path d="M0 0L0 109L73 126Z" fill="#3d70e1" stroke="#3d70e1"></path><path d="M0 324L0 388L135 405Z" fill="#527dda" stroke="#527dda"></path><path d="M798 600L900 600L813 493Z" fill="#527dda" stroke="#527dda"></path><path d="M0 600L91 600L105 498Z" fill="#3d70e1" stroke="#3d70e1"></path><path d="M105 498L91 600L155 539Z" fill="#6b8bd0" stroke="#6b8bd0"></path><path d="M107 0L0 0L73 126Z" fill="#6185d4" stroke="#6185d4"></path><path d="M0 388L0 480L105 498Z" fill="#4d7adc" stroke="#4d7adc"></path><path d="M0 480L0 600L105 498Z" fill="#6688d2" stroke="#6688d2"></path></g></svg>