<svg id="visual" viewBox="0 0 900 600" width="900" height="600" xmlns="http://www.w3.org/2000/svg" xmlns:xlink="http://www.w3.org/1999/xlink" version="1.1"><path d="M0 103L13.7 102C27.3 101 54.7 99 82 97C109.3 95 136.7 93 163.8 101C191 109 218 127 245.2 130C272.3 133 299.7 121 327 114C354.3 107 381.7 105 409 100C436.3 95 463.7 87 491 94C518.3 101 545.7 123 573 126C600.3 129 627.7 113 654.8 114C682 115 709 133 736.2 140C763.3 147 790.7 143 818 144C845.3 145 872.7 151 886.3 154L900 157L900 0L886.3 0C872.7 0 845.3 0 818 0C790.7 0 763.3 0 736.2 0C709 0 682 0 654.8 0C627.7 0 600.3 0 573 0C545.7 0 518.3 0 491 0C463.7 0 436.3 0 409 0C381.7 0 354.3 0 327 0C299.7 0 272.3 0 245.2 0C218 0 191 0 163.8 0C136.7 0 109.3 0 82 0C54.7 0 27.3 0 13.7 0L0 0Z" fill="#769aef"></path><path d="M0 277L13.7 278C27.3 279 54.7 281 82 268C109.3 255 136.7 227 163.8 220C191 213 218 227 245.2 227C272.3 227 299.7 213 327 221C354.3 229 381.7 259 409 283C436.3 307 463.7 325 491 323C518.3 321 545.7 299 573 288C600.3 277 627.7 277 654.8 282C682 287 709 297 736.2 290C763.3 283 790.7 259 818 265C845.3 271 872.7 307 886.3 325L900 343L900 155L886.3 152C872.7 149 845.3 143 818 142C790.7 141 763.3 145 736.2 138C709 131 682 113 654.8 112C627.7 111 600.3 127 573 124C545.7 121 518.3 99 491 92C463.7 85 436.3 93 409 98C381.7 103 354.3 105 327 112C299.7 119 272.3 131 245.2 128C218 125 191 107 163.8 99C136.7 91 109.3 93 82 95C54.7 97 27.3 99 13.7 100L0 101Z" fill="#5984ea"></path><path d="M0 355L13.7 360C27.3 365 54.7 375 82 359C109.3 343 136.7 301 163.8 292C191 283 218 307 245.2 307C272.3 307 299.7 283 327 285C354.3 287 381.7 315 409 339C436.3 363 463.7 383 491 387C518.3 391 545.7 379 573 368C600.3 357 627.7 347 654.8 351C682 355 709 373 736.2 366C763.3 359 790.7 327 818 328C845.3 329 872.7 363 886.3 380L900 397L900 341L886.3 323C872.7 305 845.3 269 818 263C790.7 257 763.3 281 736.2 288C709 295 682 285 654.8 280C627.7 275 600.3 275 573 286C545.7 297 518.3 319 491 321C463.7 323 436.3 305 409 281C381.7 257 354.3 227 327 219C299.7 211 272.3 225 245.2 225C218 225 191 211 163.8 218C136.7 225 109.3 253 82 266C54.7 279 27.3 277 13.7 276L0 275Z" fill="#376de3"></path><path d="M0 451L13.7 457C27.3 463 54.7 475 82 455C109.3 435 136.7 383 163.8 365C191 347 218 363 245.2 369C272.3 375 299.7 371 327 375C354.3 379 381.7 391 409 407C436.3 423 463.7 443 491 455C518.3 467 545.7 471 573 459C600.3 447 627.7 419 654.8 421C682 423 709 455 736.2 460C763.3 465 790.7 443 818 435C845.3 427 872.7 433 886.3 436L900 439L900 395L886.3 378C872.7 361 845.3 327 818 326C790.7 325 763.3 357 736.2 364C709 371 682 353 654.8 349C627.7 345 600.3 355 573 366C545.7 377 518.3 389 491 385C463.7 381 436.3 361 409 337C381.7 313 354.3 285 327 283C299.7 281 272.3 305 245.2 305C218 305 191 281 163.8 290C136.7 299 109.3 341 82 357C54.7 373 27.3 363 13.7 358L0 353Z" fill="#2f5ec5"></path><path d="M0 601L13.7 601C27.3 601 54.7 601 82 601C109.3 601 136.7 601 163.8 601C191 601 218 601 245.2 601C272.3 601 299.7 601 327 601C354.3 601 381.7 601 409 601C436.3 601 463.7 601 491 601C518.3 601 545.7 601 573 601C600.3 601 627.7 601 654.8 601C682 601 709 601 736.2 601C763.3 601 790.7 601 818 601C845.3 601 872.7 601 886.3 601L900 601L900 437L886.3 434C872.7 431 845.3 425 818 433C790.7 441 763.3 463 736.2 458C709 453 682 421 654.8 419C627.7 417 600.3 445 573 457C545.7 469 518.3 465 491 453C463.7 441 436.3 421 409 405C381.7 389 354.3 377 327 373C299.7 369 272.3 373 245.2 367C218 361 191 345 163.8 363C136.7 381 109.3 433 82 453C54.7 473 27.3 461 13.7 455L0 449Z" fill="#274fa8"></path></svg>